<?xml version="1.0" encoding="utf-8"?>
<!-- Generator: Adobe Illustrator 23.0.3, SVG Export Plug-In . SVG Version: 6.00 Build 0)  -->
<svg version="1.1" id="Layer_1" xmlns="http://www.w3.org/2000/svg" xmlns:xlink="http://www.w3.org/1999/xlink" x="0px" y="0px"
	 viewBox="0 0 231.28 175" style="enable-background:new 0 0 231.28 175;" xml:space="preserve">
<style type="text/css">
	.st0{fill:#FFFFFF;}
</style>
<g id="Group_4" transform="translate(0)">
	<path id="Path_22" class="st0" d="M50.01,163.71c0.28-1.47,0.54-2.84,0.8-4.2c0.9-4.66,1.8-9.33,2.7-13.99
		c0.98-5.09,1.96-10.18,2.94-15.27c0.94-4.9,1.89-9.8,2.84-14.69c0.94-4.88,1.88-9.75,2.83-14.63c0.9-4.64,1.79-9.28,2.69-13.92
		c0.94-4.88,1.88-9.75,2.81-14.63c0.94-4.9,1.92-9.79,2.82-14.7c0.04-0.82,0.65-1.49,1.46-1.6c12.56-3.16,24.81-7.45,36.59-12.84
		c11.02-5.12,21.01-12.22,29.46-20.94c3.8-3.83,7-8.2,9.49-12.99c0.04-0.05,0.08-0.1,0.12-0.15c0.58,1.79,1.15,3.55,1.71,5.31
		c7.87,24.6,15.74,49.21,23.61,73.81c0.2,0.55,0.14,1.16-0.17,1.66c-1.88,3.14-4.11,6.05-6.65,8.68
		c-6.11,6.4-12.75,12.27-19.84,17.56c-16.73,12.93-35,23.2-54.29,31.74c-13.4,5.97-27.14,11.17-41.13,15.57
		C50.56,163.55,50.35,163.61,50.01,163.71z M144.04,30.17l-0.2-0.12c-0.12,0.21-0.26,0.4-0.41,0.58c-1.71,1.6-3.37,3.26-5.15,4.78
		c-8.54,7.33-18.11,13.36-28.4,17.91c-9.82,4.26-19.91,7.85-30.22,10.74c-0.39,0.08-0.67,0.41-0.69,0.8
		c-0.41,2.18-0.84,4.36-1.26,6.54c-0.94,4.88-1.88,9.75-2.81,14.63c-0.94,4.88-1.88,9.75-2.83,14.63c-0.23,1.2-0.46,2.41-0.7,3.69
		c0.25-0.06,0.4-0.09,0.54-0.13c9.07-2.6,18.03-5.54,26.84-8.92c9.05-3.35,17.81-7.44,26.19-12.23
		c10.32-5.96,19.86-13.17,28.41-21.47c0.41-0.31,0.56-0.87,0.35-1.34c-2.81-8.7-5.6-17.42-8.37-26.13
		C144.9,32.81,144.47,31.49,144.04,30.17L144.04,30.17z"/>
	<path id="Path_23" class="st0" d="M174.9,127.1c0.81,2.11,1.59,4.16,2.38,6.22c1.24,3.23,2.48,6.47,3.74,9.7
		c0.21,0.54,0.16,0.76-0.41,1.01c-5.37,2.26-10.92,4.03-16.6,5.31c-6.66,1.54-13.36,2.93-20.07,4.23
		c-5.05,0.97-10.14,1.72-15.22,2.51c-3.9,0.61-7.81,1.17-11.72,1.68c-3.7,0.49-7.41,0.91-11.11,1.35c-3.75,0.44-7.5,0.87-11.26,1.29
		c-1.34,0.15-2.69,0.26-4.05,0.33c1.58-0.44,3.15-0.89,4.73-1.33c17.41-4.75,34.51-10.54,51.23-17.34c8.43-3.4,16.55-7.5,24.3-12.25
		C172.18,128.94,173.49,128.04,174.9,127.1z"/>
	<path id="Path_24" class="st0" d="M171.05,102.99c1.22,2.91,2.42,5.74,3.61,8.57c0.67,1.59,1.33,3.18,2.03,4.75
		c0.21,0.34,0.11,0.78-0.22,1c-4.32,3.71-9.03,6.93-14.05,9.6c-9.25,5.06-18.81,9.52-28.63,13.35c-12.88,5.18-25.98,9.74-39.3,13.68
		c-0.11,0.01-0.23,0.01-0.34,0c1.25-0.6,2.38-1.13,3.5-1.67c11.35-5.47,22.63-11.09,33.43-17.6c8.65-5.32,16.92-11.22,24.76-17.66
		c5.31-4.23,10.31-8.84,14.96-13.78C170.85,103.16,170.92,103.1,171.05,102.99z"/>
	<path id="Path_25" class="st0" d="M80.94,165.73c1.59-0.1,3.18-0.21,4.77-0.31c3.1-0.21,6.19-0.42,9.29-0.64
		c2.51-0.18,5.01-0.35,7.52-0.56c2.29-0.19,4.57-0.41,6.85-0.62c2.48-0.23,4.96-0.44,7.44-0.69c2.26-0.23,4.51-0.49,6.77-0.75
		c2.39-0.27,4.77-0.53,7.15-0.83c2.45-0.3,4.89-0.61,7.33-0.95c2.53-0.35,5.05-0.73,7.57-1.14c3.83-0.63,7.67-1.2,11.46-1.98
		c5.14-1.05,10.25-2.24,15.36-3.43c1.63-0.38,3.22-0.93,4.9-1.43l3.92,11.33l-100.32,2.11L80.94,165.73z"/>
</g>
</svg>
