<?xml version="1.0" encoding="utf-8"?>
<!-- Generator: Adobe Illustrator 23.0.3, SVG Export Plug-In . SVG Version: 6.00 Build 0)  -->
<svg version="1.1" id="Layer_1" xmlns="http://www.w3.org/2000/svg" xmlns:xlink="http://www.w3.org/1999/xlink" x="0px" y="0px"
	 viewBox="0 0 231.28 175" style="enable-background:new 0 0 231.28 175;" xml:space="preserve">
<path d="M22.45,91.3l7.74-4.49c1.4,3.25,3.81,5.44,8.24,5.44c4.26,0,5.33-1.68,5.33-3.2c0-2.41-2.24-3.37-8.13-4.99
	c-5.83-1.63-11.55-4.43-11.55-11.95c0-7.57,6.39-11.95,13.18-11.95c6.45,0,11.5,3.08,14.36,8.86l-7.57,4.43
	c-1.35-2.8-3.2-4.54-6.79-4.54c-2.8,0-4.21,1.4-4.21,2.97c0,1.79,0.95,3.03,7.07,4.88c5.95,1.79,12.62,3.87,12.62,12.17
	c0,7.57-6.06,12.06-14.58,12.06C29.91,101,24.64,97.08,22.45,91.3z"/>
<path d="M86.55,72.17v39.26h-8.41V97.58c-1.85,2.13-4.6,3.42-8.36,3.42c-7.35,0-13.4-6.45-13.4-14.81c0-8.36,6.06-14.81,13.4-14.81
	c3.76,0,6.51,1.29,8.36,3.42v-2.64H86.55z M78.14,86.2c0-4.21-2.8-6.84-6.67-6.84c-3.87,0-6.67,2.64-6.67,6.84
	c0,4.21,2.8,6.84,6.67,6.84C75.34,93.04,78.14,90.4,78.14,86.2z"/>
<path d="M119.25,72.17v28.04h-8.41v-2.64c-1.51,2.07-4.32,3.42-8.02,3.42c-5.67,0-10.49-4.04-10.49-11.61V72.17h8.41v15.99
	c0,3.48,2.19,5.1,4.88,5.1c3.08,0,5.22-1.79,5.22-5.78V72.17H119.25z"/>
<path d="M154.19,72.17v28.04h-8.41v-2.64c-1.85,2.13-4.6,3.42-8.36,3.42c-7.35,0-13.4-6.45-13.4-14.81c0-8.36,6.06-14.81,13.4-14.81
	c3.76,0,6.51,1.29,8.36,3.42v-2.64H154.19z M145.77,86.2c0-4.21-2.8-6.84-6.67-6.84c-3.87,0-6.67,2.64-6.67,6.84
	c0,4.21,2.8,6.84,6.67,6.84C142.97,93.04,145.77,90.4,145.77,86.2z"/>
<path d="M177.18,71.61v9.54c-3.48-0.56-8.41,0.84-8.41,6.39v12.68h-8.41V72.17h8.41v4.99C169.89,73.41,173.65,71.61,177.18,71.61z"
	/>
<path d="M194.51,93.49c2.3,0,4.26-0.9,5.38-2.13l6.73,3.87c-2.75,3.81-6.9,5.78-12.23,5.78c-9.59,0-15.54-6.45-15.54-14.81
	c0-8.36,6.06-14.81,14.92-14.81c8.19,0,14.25,6.34,14.25,14.81c0,1.18-0.11,2.3-0.34,3.37h-19.91
	C188.84,92.48,191.42,93.49,194.51,93.49z M199.67,83.28c-0.9-3.25-3.42-4.43-5.95-4.43c-3.2,0-5.33,1.57-6.11,4.43H199.67z"/>
<rect x="10.05" y="53.45" width="3" height="57.58"/>
<rect x="10.75" y="53.45" width="208.97" height="3"/>
<rect x="218.22" y="53.45" width="3" height="57.71"/>
<rect x="90.87" y="108.86" width="130.35" height="3"/>
<rect x="10.05" y="108.86" width="61.59" height="2.92"/>
</svg>
