<?xml version="1.0" encoding="utf-8"?>
<!-- Generator: Adobe Illustrator 23.0.3, SVG Export Plug-In . SVG Version: 6.00 Build 0)  -->
<svg version="1.1" id="Layer_1" xmlns="http://www.w3.org/2000/svg" xmlns:xlink="http://www.w3.org/1999/xlink" x="0px" y="0px"
	 viewBox="0 0 231.28 175" style="enable-background:new 0 0 231.28 175;" xml:space="preserve">
<style type="text/css">
	.st0{fill:#FFFFFF;}
</style>
<path id="Path_15" class="st0" d="M19.21,53.37c0.28,2.55,0.29,5.12,0.03,7.66c0.27,0.86,0.26,1.77-0.03,2.62
	c0.28,2.55,0.29,5.12,0.03,7.66c0.27,0.86,0.26,1.77-0.03,2.62c0.28,2.55,0.29,5.12,0.03,7.66c0.27,0.86,0.26,1.77-0.03,2.62
	c0.28,2.55,0.29,5.12,0.03,7.66c0.27,1.03,0.26,2.11-0.03,3.14c0.29,2.38,0.3,4.78,0.03,7.15c0.27,0.86,0.26,1.77-0.03,2.62
	c0.28,2.55,0.29,5.12,0.03,7.66c0.27,0.86,0.26,1.77-0.03,2.62c0.28,2.55,0.29,5.12,0.03,7.66c0.27,0.86,0.26,1.77-0.03,2.62
	c0.28,2.55,0.29,5.12,0.03,7.66c0.27,0.86,0.26,1.77-0.03,2.62c0.28,2.55,0.29,5.12,0.03,7.66c0.27,0.86,0.26,1.77-0.03,2.62
	c0.28,2.55,0.29,5.12,0.03,7.66c0.24,0.86,0.25,1.76,0.03,2.62c0.39,2.6,2.37,4.67,4.95,5.18l2.59-0.01l7.73,0.02l2.59-0.02
	l7.73,0.02l2.59-0.02l7.73,0.02l2.59-0.02l7.73,0.02l2.59-0.02l7.73,0.02l2.59-0.02l7.73,0.02l2.59-0.02l7.73,0.02l2.59-0.02
	l7.73,0.02l2.59-0.02l7.73,0.02l2.59-0.02l7.73,0.02l2.59-0.02l7.73,0.02l2.59-0.02l7.73,0.02l2.59-0.02l7.73,0.02l2.59-0.02
	l7.73,0.02l2.59-0.02l7.73,0.02l2.59-0.02l7.73,0.02l2.59-0.02l7.73,0.02l2.59-0.02l7.73,0.02l2.59-0.02l7.22-0.07l2.06-1.02
	c1.2-1.05,1.96-2.51,2.15-4.09l0.02-2.59l-0.02-7.7l0.02-2.59l-0.02-7.7l0.02-2.59l-0.02-7.7l0.02-2.59l-0.02-7.7l0.02-2.59
	l-0.02-7.7l0.02-2.59c-0.01-2.57-0.01-5.13-0.02-7.7l0.02-2.59l-0.02-7.7l0.02-2.59l-0.02-7.7l0.02-2.59
	c-0.01-2.57-0.01-5.13-0.02-7.7l0.02-2.59l-0.02-7.7l0.02-2.59l-0.02-7.7l0.02-2.59l-0.02-7.7l0.02-2.59l-0.02-7.7
	c0.02-1.34-0.75-2.39-1.28-3.53l-0.42-0.41c-1.14-0.54-2.2-1.3-3.55-1.28l-7.73-0.03l-2.6,0.02l-7.73-0.02l-2.6,0.02l-7.73-0.02
	l-2.6,0.02l-7.73-0.02l-2.6,0.02l-7.73-0.02l-2.6,0.02l-7.73-0.02l-2.6,0.02l-7.73-0.02l-2.6,0.02l-7.73-0.02l-2.6,0.02l-7.73-0.02
	l-2.6,0.02l-7.73-0.02l-2.6,0.02l-7.73-0.02l-2.6,0.02l-7.73-0.02l-2.6,0.02l-7.73-0.02l-2.6,0.02l-7.73-0.02l-2.6,0.02l-7.73-0.02
	l-2.6,0.02l-7.73-0.02l-2.6,0.02h-5.67c4.46,4.43,8.13,8.75,12.5,12.18c2.79,2.19,6.44,3.32,9.3,5.68c0.74,0.61,2.3,0.24,3.49,0.32
	l2.6-0.02l7.73,0.02l2.6-0.02l7.73,0.02l2.6-0.02l7.73,0.02l2.6-0.02l7.73,0.02l2.6-0.02l7.73,0.02l2.6-0.02l7.76,0.01l2.6-0.02
	l7.73,0.02l2.6-0.02l7.73,0.02l2.6-0.02l7.73,0.02c3.77-0.23,3.77-0.23,3.53,3.51c0.01,2.57,0.01,5.13,0.02,7.7
	c-0.01,0.86-0.01,1.72-0.02,2.58c0.01,2.57,0.01,5.13,0.02,7.7l-0.02,2.58c0.01,2.57,0.01,5.13,0.02,7.7
	c-0.01,0.86-0.01,1.72-0.02,2.58c0.01,2.57,0.01,5.13,0.02,7.7c-0.01,0.86-0.01,1.72-0.02,2.58c0.01,2.57,0.01,5.13,0.02,7.7
	c-0.01,0.86-0.01,1.72-0.02,2.58c0.01,2.57,0.01,5.13,0.02,7.7c-0.01,0.86-0.01,1.72-0.02,2.58l0.02,7.7
	c-0.01,0.86-0.01,1.72-0.02,2.58c0.01,2.57,0.01,5.13,0.02,7.7c-0.01,0.86-0.01,1.72-0.02,2.58c0.01,2.57,0.01,5.13,0.02,7.7
	c-0.01,0.86-0.01,1.72-0.02,2.58c0.01,2.57,0.01,5.13,0.02,7.7l-0.02,2.58l-0.06,1.02c0.01,0.25-0.01,0.46-0.33,0.21
	c-2.41,0.25-4.83,0.24-7.24-0.04c-1.02,0.28-2.1,0.29-3.13,0.04c-2.39,0.25-4.8,0.24-7.19-0.04c-1.03,0.28-2.11,0.29-3.14,0.04
	c-5.84,0.2-11.68,0.28-17.52-0.04c-1.02,0.28-2.1,0.29-3.13,0.04c-2.39,0.25-4.79,0.24-7.18-0.04c-1.03,0.28-2.11,0.29-3.14,0.04
	c-2.39,0.25-4.8,0.24-7.18-0.04c-1.02,0.28-2.1,0.29-3.13,0.04c-2.39,0.25-4.8,0.24-7.19-0.04c-1.03,0.28-2.11,0.29-3.15,0.04
	c-2.39,0.25-4.79,0.24-7.18-0.04c-1.03,0.28-2.11,0.29-3.15,0.04c-2.39,0.25-4.79,0.24-7.18-0.04c-1.03,0.28-2.11,0.29-3.15,0.04
	c-2.39,0.25-4.79,0.24-7.18-0.04c-1.03,0.28-2.11,0.29-3.15,0.04c-2.39,0.25-4.79,0.24-7.18-0.04c-1.03,0.28-2.11,0.29-3.15,0.04
	c-2.39,0.25-4.79,0.24-7.18-0.04c-1.03,0.28-2.11,0.29-3.15,0.04c-2.03,0.05-4.06,0.04-6.08,0.16c-1.37,0.08-1.76-0.46-1.7-1.75
	c0.11-2.1,0.08-4.21,0.11-6.32c0.01-0.86,0.02-1.72,0.02-2.58l-0.02-7.71c0.01-0.86,0.02-1.72,0.02-2.58
	c-0.01-2.57-0.01-5.14-0.02-7.71l0.02-2.58c-0.01-2.57-0.01-5.14-0.02-7.71l0.02-2.58l-0.02-7.71l0.02-2.58
	c-0.01-2.57-0.01-5.14-0.02-7.71l0.02-2.58c-0.01-2.57-0.01-5.14-0.02-7.71l0.02-2.58c0.25-2.14-0.56-4.26-2.17-5.69
	c-0.57-0.53-1.01-1.17-1.29-1.89c-2.74-7.42-9.57-11.34-14.68-17.48c-0.14,2.05-0.23,3.52-0.33,4.98
	C19.53,51.58,19.51,52.51,19.21,53.37z M208.59,113.55c0.72,0.96,0.31,2.02,0.28,3.05c-0.01,0.87-0.02,1.73-0.02,2.6
	c0.23,1.88,0.21,3.79-0.07,5.66c0.05,0.25,0.03,0.36-0.2,0.11c-1.01,0.36-2.11,0.37-3.13,0.05c-0.85,0.28-1.76,0.31-2.63,0.08
	c-2.39,0.21-4.8,0.19-7.18-0.05c-1.03,0.25-2.1,0.26-3.14,0.05c-9.3-0.02-7.48,1.96-7.41-7.44c-0.26-1.04-0.25-2.13,0.04-3.16
	c0.01-0.3,0.06-0.6,0.14-0.89c2.64-0.13,5.31-0.76,7.9,0.33c0.7-0.53,1.61-0.69,2.45-0.43l7.23,0.01c1.02-0.22,2.08-0.22,3.1-0.01
	c0.89-0.2,1.81-0.18,2.69,0.05l0.06-0.17L208.59,113.55z M208.62,131.57l0.15-0.11l-0.2,0.08c0.86,1.84,0.27,3.75,0.31,5.63
	l-0.02,2.6c0.25,1.02,0.2,2.1-0.14,3.1l0.01,0.17l-0.11-0.13c-1.89,0.43-3.85,0.44-5.74,0.04c-0.84,0.35-1.77,0.38-2.63,0.1
	c-2.56,0.28-5.14,0.25-7.69-0.1c-0.84,0.35-1.77,0.38-2.63,0.1c-1.62,0.3-3.28,0.25-4.88-0.17l0.14-0.01l-0.06,0.07
	c-0.26-1.56-0.27-3.15-0.03-4.71c-0.29-1.03-0.25-2.12,0.1-3.14c-0.41-1.16-0.39-2.42,0.07-3.56l-0.21-0.1l0.19,0.09
	c1.79-0.05,3.63-0.73,5.34,0.37c0.7-0.55,1.62-0.7,2.46-0.41c2.4-0.21,4.82-0.2,7.22,0.01c1.02-0.23,2.08-0.24,3.1-0.01
	C205.11,131.27,206.88,131.29,208.62,131.57L208.62,131.57z M206.5,104.29c-0.53,0.6-1.27,0.99-2.06,1.1
	c-1.53,1.01-3.35,1.53-5.18,1.46c-1.33,0.53-2.81,0.55-4.15,0.05c-8.23-0.33-15.6-7.72-15.95-16.01l0.01-2.58
	c-0.13-2.48,0.51-4.94,1.85-7.04c0.01-0.48,0.26-0.92,0.67-1.18c0.76-1.69,1.97-3.13,3.5-4.17c0.28-0.55,0.78-0.95,1.37-1.1
	c1.38-1.26,3.09-2.11,4.93-2.45c1.1-0.74,2.4-0.66,3.63-0.9c3-0.44,6.06,0.07,8.76,1.45c4.34,1.51,7.77,4.89,9.35,9.2
	c1.72,2.9,1.77,6.06,1.44,9.28c0.2,0.72,0.03,1.49-0.46,2.06c-0.2,2.11-1.06,4.11-2.45,5.72c-0.3,0.86-0.87,1.6-1.64,2.09
	C209.2,102.58,207.96,103.62,206.5,104.29z M208.88,44.59c-0.2,0.99,1.15,2.82-1.39,2.53l-7.73-0.02l-2.59,0.02l-7.73-0.02
	c-5.02,0.12-4.74,1.24-4.3-4.58c-0.27-2.22-0.28-4.47-0.04-6.7l-0.13-0.17l0.34-0.16l1.54-0.06l2.6-0.02l7.73,0.02l2.6-0.02
	l7.73,0.02c1.34-0.34,1.73,0.21,1.37,1.46L208.88,44.59z M185.08,55.94c-0.21-1.39-0.77-3.03,1.76-2.52l7.73,0.02l2.59-0.02
	l7.73,0.02c4.65-0.11,4.21-1.04,3.95,4.04c0.01,2.4,0.02,4.8,0.02,7.19c0.13,0.34,0,0.47-0.35,0.41l-1.03,0.02l-2.59,0.02
	l-7.73-0.02l-2.59,0.02l-7.73-0.02c-1.9,0.46-2.23-0.41-1.72-2C184.84,60.72,184.83,58.32,185.08,55.94z"/>
<path id="Path_16" class="st0" d="M41.2,55.03c1.07,2.8,2.78,5.31,5,7.33c9.75,9.65,19.45,19.35,29.12,29.08
	c1.43,1.23,2.62,2.7,3.51,4.36c0.96,2.12,3.05,1.43,4.76,1.64c5.46-1.07,10.27-4.27,13.38-8.89l2.19-5.14l0.51-2.08
	c0.1-2.49-0.43-4.53-3.17-5.46c-0.82-0.28-1.42-1.21-2.09-1.87c-9.78-9.77-19.55-19.55-29.31-29.35c-2.18-2.42-4.85-4.33-7.83-5.62
	c-1.43,0.32-2.17-0.69-3.02-1.54c-8.65-8.66-17.31-17.32-25.98-25.97c-0.57-0.57-1-1.35-1.96-1.62c-1.17,2.46-2.11,5.04-4.12,6.96
	c-0.78,1.23-1.82,2.28-3.04,3.07c-0.53,0.72-1.27,1.27-2.13,1.55c-1.55,1.17-3.29,2.07-5.14,2.64c0.62,0.7,1.21,1.42,1.86,2.08
	c8.6,8.61,17.2,17.22,25.8,25.83C40.36,52.87,41.47,53.57,41.2,55.03z M65.47,67.01c0.04-1.49,0.97-2.81,2.35-3.37
	c1.45-0.7,3.19-0.31,4.2,0.95c4.48,4.4,8.92,8.84,13.32,13.32c1.82,1.86,1.81,3.84,0.23,5.48s-3.79,1.61-5.68-0.26
	c-4.35-4.29-8.64-8.63-12.96-12.94C65.99,69.4,65.46,68.23,65.47,67.01L65.47,67.01z"/>
<path id="Path_17" class="st0" d="M104.02,85.78l-0.8-1.23c-0.75,0.16-0.32,1.11-0.91,1.37c-0.41,1.95-1.31,3.77-2.61,5.28
	c-2.86,5.02-7.6,7.52-12.74,9.47l1.29,1l5.75,2.8c1.62,0.78,3.24,1.55,4.86,2.33c6.37,3.08,6.37,3.08,11.31-2.14l1.11-1.49
	c0.47-0.91,0.39-2-0.19-2.84c-1.54-3.11-2.99-6.28-4.47-9.43L104.02,85.78z"/>
<path id="Path_18" class="st0" d="M19.99,13.35c0.74-1.62,1.4-3.28,2.26-4.84c0.84-1.53,0.17-2.33-1.11-2.99
	c-2.52-0.76-5.21-0.68-7.68,0.22l-0.9,0.33c-1.4,1.03-2.68,2.21-3.81,3.53l-0.9,1.59c-0.76,2.3-0.88,4.76-0.34,7.12
	c0.57,0.78,0.33,2.17,1.76,2.28l5.64-2.31c0.07-0.43,0.42-0.48,0.75-0.55L19.99,13.35z"/>
<path id="Path_19" class="st0" d="M115.11,109.39c-0.79-0.7-0.41-2.12-1.58-2.58c-1.25,1.65-2.68,3.14-4.27,4.46
	c1.22,0.84,2.59,1.41,4.04,1.69c2.33,0.7,2.73,0.27,2.19-2.1C115.38,110.37,115.24,109.88,115.11,109.39z"/>
<path id="Path_20" class="st0" d="M191.05,78.52l-2.13,1.54l-2.84,3.71c-0.25,0.48-0.17,1.13-0.74,1.44
	c-0.64,2.53-0.66,5.18-0.08,7.73c1.51,3.97,4.76,7.01,8.82,8.25l6.01-0.08c0.42-0.58,1.12-0.42,1.68-0.64
	c1.67-0.94,3.22-2.1,4.6-3.43l1.09-1.52c0.84-1.79,1.39-3.7,1.64-5.67l-0.03-2.59c-1.46-5.11-4.48-8.68-9.83-9.94
	c-1.04,0.05-2.07-0.43-3.12-0.08C194.38,77.42,192.67,77.85,191.05,78.52z"/>
</svg>
