<?xml version="1.0" encoding="utf-8"?>
<!-- Generator: Adobe Illustrator 23.0.3, SVG Export Plug-In . SVG Version: 6.00 Build 0)  -->
<svg version="1.1" id="Layer_1" xmlns="http://www.w3.org/2000/svg" xmlns:xlink="http://www.w3.org/1999/xlink" x="0px" y="0px"
	 viewBox="0 0 231.28 175" style="enable-background:new 0 0 231.28 175;" xml:space="preserve">
<style type="text/css">
	.st0{fill:#FFFFFF;}
</style>
<g>
	<path class="st0" d="M196.11,9.45c-14.19-0.01-28.38-0.01-42.57-0.01c-26.33-0.01-52.66,0-78.99,0.01c-4.34,0-6.01,1.7-6.02,6.01
		c-0.02,6.7,0.05,13.4-0.07,20.1c-0.05,1.21-0.52,2.36-1.31,3.27c-8.52,8.98-17.21,17.8-25.68,26.82c-2.36,2.53-4.42,5.32-6.14,8.32
		c-6.73,11.67-8.02,24.16-6,37.39c1.73,11.35,2.5,22.85,3.72,34.27c0.58,5.48,1.14,10.96,1.88,16.42c0.32,2.38,2.35,3.67,4.84,3.49
		c2.22-0.13,3.98-1.92,4.08-4.14c0.01-1.26-0.07-2.52-0.23-3.77c-0.54-5.25-1.09-10.49-1.65-15.73
		c-1.19-11.19-2.45-22.38-3.56-33.58c-0.54-5.45-1.69-10.86-0.26-16.4c1.79-6.91,3.75-13.73,8.76-19.07
		c6.42-6.84,13.02-13.51,19.55-20.24c0.46-0.47,0.97-0.89,1.59-1.44c0.11,0.29,0.19,0.6,0.24,0.91c0.01,8.43,0.06,16.87-0.05,25.3
		c-0.14,1.05-0.66,2.01-1.45,2.72c-4.95,4.75-9.99,9.41-14.98,14.11c-2.35,2.21-2.61,5.07-0.7,7.07c1.75,1.84,4.68,1.68,6.96-0.42
		c4.22-3.92,8.43-7.84,12.65-11.75L95.98,65.6c2.85,1.34,4.84,3.21,4.8,6.48c0.05,1.39-0.12,2.77-0.49,4.08
		c-0.72,0.73-1.13,1.7-1.17,2.86c-0.61,1.12-1.37,2.16-2.29,3.07c-6.49,6.33-12.98,12.66-19.47,18.99
		c-3.47,3.38-3.58,4.81-0.72,8.67c3.67,4.63,5.21,10.59,4.24,16.42c-0.77,4.51-2.58,8.78-5.29,12.47c-0.09,0.11-0.17,0.23-0.25,0.35
		c-1.26,1.98-0.68,4.62,1.31,5.88c2.29,1.64,4.88,1.43,6.49-0.77c4.04-5.38,6.5-11.78,7.1-18.48c0.66-6.69-1-13.41-4.69-19.02
		c1.47-2.18,3.36-2.86,5.89-2.78c5.75,0.18,11.51,0.06,17.26,0.06h5.6c0,7.06,0,13.82-0.01,20.58c-0.03,0.23-0.09,0.46-0.18,0.68
		c-1.52,6.2-5.6,10.27-11.05,13.11c-2.23,0.95-3.59,3.23-3.39,5.65c0.11,5.28,0.02,10.56,0.04,15.84c0.01,3.21,1.75,5.22,4.47,5.26
		s4.58-1.95,4.62-5.11c0.05-4.18,0.1-8.36,0-12.53c-0.15-1.4,0.57-2.75,1.82-3.41c6.01-3.88,10.56-9.03,12.34-16.11
		c0.66-2.91,1-5.88,1.03-8.87c0.16-5.1,0.04-10.21,0.04-15.59l3.29,0.01c23.18,0,46.35,0,69.53,0c4.34,0,5.96-1.65,5.96-6.02
		c0-27.04,0-54.08,0.01-81.12C202.84,11.54,200.8,9.45,196.11,9.45z M98.44,93.94c1.97-2.13,4.06-4.21,5.95-6.47
		c0.96-1.15,1.83-2.32,2.59-3.53c2.81,0.01,5.62,0,8.43,0l0,0.02c3.86,0,7.72,0.04,11.58-0.01c2.97-0.04,5.22-2.12,5.19-4.69
		c-0.03-2.58-2.27-4.6-5.26-4.61c-5.52-0.02-11.05-0.01-16.57,0c0.24-2.38,0.04-4.87-0.71-7.49c-1.64-5.71-5.7-8.85-10.75-10.65
		c5.53,0,11.05,0,16.58,0l0,0.02c9.13,0.01,18.26,0.01,27.4-0.01c3.26-0.01,5.46-1.86,5.52-4.57c0.07-2.78-2.22-4.74-5.59-4.74
		c-18.11-0.01-36.21,0-54.32,0.01c-3.46,0-5.63,1.83-5.6,4.68s2.17,4.62,5.66,4.62c1.61,0,3.22,0,4.84,0
		c-0.44,0.24-0.84,0.51-1.17,0.79c-4.24,3.64-8.27,7.54-12.38,11.34c-0.5,0.46-1.02,0.89-1.77,1.54V18.51h115.21l0,75.43H98.44z"/>
	<path class="st0" d="M128.7,30.18c-8.81-0.01-17.61,0-26.42,0.01c-3.42,0.01-5.61,1.88-5.56,4.71c0.05,2.74,2.2,4.56,5.46,4.58
		c4.48,0.02,8.97,0.01,13.45,0.01v0.01c4.32,0,8.65,0.01,12.97,0c3.62-0.01,5.91-1.78,5.96-4.61
		C134.61,32.08,132.26,30.18,128.7,30.18z"/>
</g>
</svg>
