<?xml version="1.0" encoding="utf-8"?>
<!-- Generator: Adobe Illustrator 23.0.3, SVG Export Plug-In . SVG Version: 6.00 Build 0)  -->
<svg version="1.1" id="Layer_1" xmlns="http://www.w3.org/2000/svg" xmlns:xlink="http://www.w3.org/1999/xlink" x="0px" y="0px"
	 viewBox="0 0 231.28 175" style="enable-background:new 0 0 231.28 175;" xml:space="preserve">
<style type="text/css">
	.st0{fill:#FFFDFE;}
</style>
<path id="Path_7" class="st0" d="M115.43,16.95c-25.13,0-50.27,0-75.4,0c-6.17,0-7.35,1.17-7.35,7.39
	c-0.01,43.19-0.01,86.38,0,129.57c0,6.45,1.14,7.57,7.62,7.57c50.27,0,100.53,0,150.79,0c6.43,0,7.57-1.13,7.58-7.61
	c0.01-43.19,0.01-86.38,0-129.57c0-6.19-1.18-7.34-7.39-7.35C166,16.94,140.72,16.94,115.43,16.95z M115.69,50.3
	c23.17,0,46.33,0.07,69.5-0.08c3.39-0.02,4.29,0.88,4.27,4.26c-0.13,31.14-0.13,62.28,0,93.42c0.02,3.55-0.95,4.51-4.52,4.51
	c-46.18-0.12-92.36-0.12-138.54,0c-3.59,0.01-4.51-1-4.5-4.52c0.13-31.14,0.13-62.28,0-93.42c-0.01-3.4,0.92-4.26,4.29-4.24
	C69.35,50.37,92.52,50.3,115.69,50.3L115.69,50.3z M115.7,40.51H51.64c-9.71,0-9.5-0.01-9.76-9.53c-0.11-4,1.01-4.98,4.99-4.97
	c44.21,0.15,88.42,0.1,132.63,0.1c10.01,0,9.86,0,9.98,10.24c0.04,3.41-0.94,4.26-4.3,4.24C162.01,40.44,138.86,40.51,115.7,40.51
	L115.7,40.51z"/>
<path id="Path_9" class="st0" d="M107.33,82.17c0.52,2.03,1.19,4.65,1.86,7.26c2.68,10.48,5.38,20.95,8.01,31.44
	c0.71,2.81,2.04,4.98,5.25,4.07c3.08-0.87,3.34-3.26,2.58-6.17c-3.26-12.5-6.37-25.04-9.55-37.56c-0.66-2.59-2-4.45-5.05-3.93
	C108.1,77.7,107.26,79.33,107.33,82.17z"/>
<path id="Path_10" class="st0" d="M76,99.2c0.1,1.44,0.77,2.78,1.87,3.72c3.71,3.72,7.43,7.43,11.14,11.14
	c1.95,1.95,4.18,2.66,6.32,0.58c2.18-2.12,1.36-4.26-0.54-6.29c-2.83-3.03-8.08-5.6-7.96-9.04c0.11-3.02,4.98-5.9,7.82-8.77
	c2.06-2.09,3-4.35,0.56-6.61c-2.23-2.06-4.38-1.1-6.29,0.83c-3.69,3.74-7.4,7.45-11.13,11.15C76.8,96.76,76.17,97.93,76,99.2z"/>
<path id="Path_11" class="st0" d="M140.29,82.87c-1.67-0.15-3.27,0.72-4.04,2.22c-0.88,1.49-0.6,3.39,0.68,4.55
	c2.46,2.63,4.95,5.24,7.61,7.65c1.8,1.63,1.59,2.71-0.1,4.23c-2.45,2.2-4.7,4.63-7.02,6.97c-1.8,1.82-2.5,3.92-0.6,5.96
	c2.02,2.17,4.31,1.77,6.31-0.2c3.96-3.89,7.88-7.82,11.77-11.78c1.66-1.7,2.2-3.82,0.46-5.64c-4.23-4.45-8.63-8.75-13.03-13.04
	C141.71,83.36,141.02,83.05,140.29,82.87z"/>
<path id="Path_12" class="st0" d="M167.73,33.39c0.17,2,1.18,3.25,3.07,3.25c1.63,0.15,3.07-1.04,3.23-2.67
	c0.02-0.24,0.02-0.49-0.02-0.73c0.01-1.59-1.27-2.89-2.86-2.9c-0.13,0-0.27,0.01-0.4,0.03C168.74,30.44,167.91,31.68,167.73,33.39z"
	/>
<path id="Path_13" class="st0" d="M177.22,33.29c0.29,2.03,1.29,3.33,3.14,3.35c1.6,0.17,3.04-0.99,3.21-2.59
	c0.03-0.26,0.02-0.53-0.02-0.79c-0.09-1.96-1.29-2.92-3.2-2.88C178.37,30.41,177.59,31.76,177.22,33.29z"/>
<path id="Path_14" class="st0" d="M161.04,36.74c1.96-0.29,3.26-1.17,3.35-3.09c0.23-1.55-0.84-2.98-2.38-3.21
	c-0.16-0.02-0.32-0.03-0.48-0.03c-1.55-0.31-3.06,0.7-3.37,2.25c-0.06,0.29-0.07,0.58-0.04,0.87
	C158.1,35.5,159.49,36.3,161.04,36.74z"/>
</svg>
